User Type,Username,Date,Text
,Ar718,2013-05-04T23:53Z,Is there anyway to get this season in a better clear version or just 720p
,vivatpb5776,2013-05-05T12:18Z,"Here is the mediainfo for those that care:

General
Complete name                    : D:''Catch and Release''Locked Up AbroadLocked.Up.Abroad.S07E04.Buried.Alive.WS.TVRip.x264[mR12].mp4
Format                           : MPEG-4
Format profile                   : Base Media / Version 2
Codec ID                         : mp42
File size                        : 188 MiB
Duration                         : 44mn 59s
Overall bit rate                 : 585 Kbps
Encoded date                     : UTC 2013-05-02 02:24:16
Tagged date                      : UTC 2013-05-02 02:35:58
Writing application              : HandBrake 0.9.8 2012071700

Video
ID                               : 1
Format                           : AVC
Format/Info                      : Advanced Video Codec
Format profile                   : Main@L3.0
Format settings, CABAC           : Yes
Format settings, ReFrames        : 5 frames
Codec ID                         : avc1
Codec ID/Info                    : Advanced Video Coding
Duration                         : 44mn 59s
Bit rate mode                    : Variable
Bit rate                         : 453 Kbps
Width                            : 624 pixels
Height                           : 352 pixels
Display aspect ratio             : 16:9
Frame rate mode                  : Constant
Frame rate                       : 25.000 fps
Color space                      : YUV
Chroma subsampling               : 4:2:0
Bit depth                        : 8 bits
Scan type                        : Progressive
Bits/(Pixel*Frame)               : 0.083
Stream size                      : 146 MiB (77%)
Writing library                  : x264 core 120
Encoding settings                : cabac=1 / ref=5 / deblock=1:1:1 / analyse=0x1:0x111 / me=hex / subme=2 / psy=1 / psy_rd=1.00:0.00 / mixed_ref=1 / me_range=16 / chroma_me=1 / trellis=0 / 8x8dct=0 / cqm=0 / deadzone=21,11 / fast_pskip=1 / chroma_qp_offset=0 / threads=6 / sliced_threads=0 / nr=0 / decimate=1 / interlaced=0 / bluray_compat=0 / constrained_intra=0 / bframes=3 / b_pyramid=2 / b_adapt=1 / b_bias=0 / direct=1 / weightb=1 / open_gop=0 / weightp=1 / keyint=250 / keyint_min=25 / scenecut=40 / intra_refresh=0 / rc_lookahead=10 / rc=crf / mbtree=1 / crf=22.0 / qcomp=0.60 / qpmin=3 / qpmax=69 / qpstep=4 / ip_ratio=1.40 / aq=1:1.00
Encoded date                     : UTC 2013-05-02 02:24:16
Tagged date                      : UTC 2013-05-02 02:35:58
Color primaries                  : BT.601-6 525, BT.1358 525, BT.1700 NTSC, SMPTE 170M
Transfer characteristics         : BT.709-5, BT.1361
Matrix coefficients              : BT.601-6 525, BT.1358 525, BT.1700 NTSC, SMPTE 170M

Audio
ID                               : 2
Format                           : AAC
Format/Info                      : Advanced Audio Codec
Format profile                   : LC
Codec ID                         : 40
Duration                         : 44mn 59s
Bit rate mode                    : Variable
Bit rate                         : 128 Kbps
Maximum bit rate                 : 181 Kbps
Channel(s)                       : 2 channels
Channel positions                : Front: L R
Sampling rate                    : 48.0 KHz
Compression mode                 : Lossy
Stream size                      : 41.2 MiB (22%)
Encoded date                     : UTC 2013-05-02 02:24:16
Tagged date                      : UTC 2013-05-02 02:35:57

To answer Ar718's question, the .torrent is pixelated but watchable. If you want a better version, either wait for someone else to release something better or upload a better version yourself."
